<?xml version="1.0" encoding="UTF-8"?>
<svg version="1.1" xmlns="http://www.w3.org/2000/svg" width="418" height="425">
<path d="M0 0 C137.94 0 275.88 0 418 0 C418 140.25 418 280.5 418 425 C280.06 425 142.12 425 0 425 C0 284.75 0 144.5 0 0 Z " fill="#D8D8D8" transform="translate(0,0)"/>
<path d="M0 0 C137.94 0 275.88 0 418 0 C418 140.25 418 280.5 418 425 C280.06 425 142.12 425 0 425 C0 284.75 0 144.5 0 0 Z M16.6288811 12.11716807 C14.6598283 15.60204385 14.49783198 17.7620235 14.49384212 21.7545166 C14.48772877 22.42400707 14.48161541 23.09349754 14.47531679 23.7832756 C14.45969208 26.03100399 14.47259179 28.27765714 14.4853363 30.52539062 C14.48001216 32.1513202 14.47294724 33.77724485 14.46428925 35.4031601 C14.44561749 39.87453575 14.45198241 44.34558122 14.46244228 48.81697083 C14.46942141 53.63777577 14.4534462 58.458512 14.44044495 63.27929688 C14.41877852 72.72456668 14.41893854 82.16971613 14.42707049 91.61500263 C14.43336449 99.28981504 14.43223897 106.96459227 14.42579842 114.6394043 C14.42489676 115.73077556 14.42399511 116.82214683 14.42306613 117.94658995 C14.42121497 120.16353163 14.41935241 122.38047331 14.41747857 124.59741497 C14.40089106 145.39682399 14.40962758 166.19616523 14.42646415 186.99557018 C14.44116375 206.03585425 14.42653069 225.07598056 14.39769398 244.11624432 C14.36832136 263.65548842 14.35732136 283.19465965 14.36687618 302.73392487 C14.36789876 304.94281513 14.36889337 307.15170541 14.3698597 309.3605957 C14.37033609 310.44747665 14.37081248 311.5343576 14.3713033 312.65417433 C14.37347016 320.32180504 14.363649 327.98936697 14.34908867 335.65698242 C14.33159775 344.99837698 14.33163611 354.33957031 14.35444032 363.68095684 C14.36561172 368.44921173 14.36867965 373.21711167 14.35013962 377.98535156 C14.33339563 382.3477139 14.33960264 386.70941002 14.36435641 391.07172871 C14.36926018 392.65240849 14.36566853 394.2331414 14.35286897 395.81377697 C14.33675078 397.95848826 14.35126799 400.10087789 14.37358761 402.2454834 C14.3738573 403.43775291 14.37412699 404.63002243 14.37440485 405.85842133 C15.20543817 410.03165788 16.59875074 411.49157198 20 414 C23.10960251 414.74216805 23.10960251 414.74216805 26.5542841 414.62641239 C27.20212531 414.63338 27.84996651 414.64034761 28.51743928 414.64752635 C30.69175786 414.66479384 32.86429978 414.64639574 35.03858948 414.62818909 C36.61161116 414.63323347 38.1846271 414.64046146 39.75762981 414.64968723 C44.08280283 414.66865197 48.40741202 414.65635223 52.73257101 414.6389643 C57.3958922 414.62561585 62.05912952 414.64101825 66.72244263 414.65278625 C75.85860119 414.67118566 84.99454619 414.66263538 94.13069815 414.64469803 C101.55380638 414.63068525 108.97685654 414.62677638 116.39997673 414.6301403 C117.45555702 414.63061775 118.51113731 414.63109519 119.59870489 414.6315871 C121.74293131 414.6326134 123.88715771 414.63366876 126.0313841 414.63475286 C145.00037634 414.64332447 163.96926531 414.62662949 182.93823242 414.59692383 C201.35624529 414.56808124 219.77410941 414.56100423 238.19213867 414.57641602 C258.23659599 414.59316573 278.28098264 414.59722526 298.32544178 414.57970566 C300.46157419 414.57786122 302.59770661 414.57602649 304.73383904 414.57420158 C305.78492726 414.57328949 306.83601548 414.5723774 307.91895487 414.57143768 C315.3360685 414.56582494 322.75314771 414.56914628 330.17025948 414.57574654 C339.20498203 414.5834669 348.23955799 414.5767739 357.27425093 414.5515715 C361.88638635 414.53904673 366.49829318 414.53296586 371.11043739 414.54411316 C375.32896552 414.55411683 379.54703673 414.5457793 383.765509 414.52253198 C385.29502258 414.51735107 386.82457673 414.5189732 388.35407288 414.52792663 C390.42712065 414.53905638 392.49860573 414.52576328 394.57155704 414.50615788 C395.72471537 414.50496639 396.87787369 414.50377491 398.0659762 414.50254732 C401.63531018 413.8911824 402.78018132 412.79811441 405 410 C406.41563552 407.16872896 406.13081194 404.79813382 406.13701439 401.63024426 C406.13966622 400.96590369 406.14231804 400.30156313 406.14505023 399.61709103 C406.15276936 397.36915895 406.15330339 395.12128126 406.15390015 392.87333679 C406.15791304 391.25412652 406.16235097 389.63491726 406.1671797 388.01570922 C406.17917019 383.5490632 406.18479936 379.082428 406.18936086 374.61576903 C406.19530751 369.80515876 406.20691959 364.99456148 406.21765137 360.18395996 C406.24219554 348.55842298 406.25680477 336.93288169 406.26971143 325.30732676 C406.27342167 322.02571815 406.27739503 318.74410996 406.2814641 315.46250176 C406.30669713 295.09910105 406.32875768 274.7356997 406.34119225 254.3722868 C406.3441221 249.65354599 406.34708375 244.93480521 406.35009766 240.21606445 C406.35121673 238.45676088 406.35121673 238.45676088 406.35235842 236.66191582 C406.36501942 217.65055407 406.39825144 198.63928569 406.43989949 179.62796762 C406.48227566 160.1249955 406.50588222 140.62207124 406.51111281 121.11905318 C406.51453166 110.16247755 406.52634269 99.20604787 406.55921555 88.24951744 C406.58715784 78.92088339 406.59824102 69.5924252 406.58702008 60.26375254 C406.58181863 55.50157706 406.58481628 50.73977018 406.60948563 45.97764778 C406.63186807 41.62074516 406.63132471 37.26447826 406.61228175 32.90756533 C406.60946621 31.32880308 406.61516599 29.74999872 406.63009469 28.17130455 C406.64911784 26.02918256 406.63747287 23.88934704 406.61803246 21.74727917 C406.61938898 20.5564212 406.62074551 19.36556322 406.62214315 18.13861865 C405.79487156 13.96515786 404.40098028 12.50766218 401 10 C397.88356165 9.25664706 397.88356165 9.25664706 394.43009853 9.3707943 C393.78056895 9.36352709 393.13103937 9.35625989 392.46182707 9.34877247 C390.2817779 9.33050071 388.10348343 9.34788493 385.92344666 9.36508179 C384.34629925 9.35932138 382.76915855 9.35138081 381.19203192 9.34144557 C376.85546772 9.32053776 372.51945239 9.33090505 368.182886 9.34637666 C363.50728723 9.35767013 358.83178412 9.34023749 354.15620422 9.32647705 C344.99599008 9.30421919 335.83598053 9.30905702 326.67575829 9.32354026 C319.23310217 9.33482179 311.79050348 9.33636811 304.34784126 9.33092117 C303.28948561 9.33015501 302.23112996 9.32938884 301.14070292 9.32859946 C298.9908395 9.32700087 296.84097609 9.32537981 294.6911127 9.3237365 C274.52216643 9.30947171 254.3533337 9.32588355 234.18440605 9.35273834 C216.86791631 9.37508099 199.55159414 9.37119517 182.23510742 9.34814453 C162.13790726 9.321405 142.04080664 9.31084167 121.94359118 9.32620585 C119.80184179 9.32779864 117.66009239 9.32937049 115.51834297 9.33092117 C113.93756447 9.33207824 113.93756447 9.33207824 112.32485105 9.33325868 C104.8881886 9.33758098 97.45158914 9.33027779 90.01493645 9.31852341 C80.95640351 9.30452052 71.89808729 9.30825183 62.83957928 9.33492713 C58.21524414 9.34809467 53.59127072 9.35316787 48.96693802 9.33668137 C44.73722421 9.32182944 40.50820884 9.32989047 36.2785588 9.35656913 C34.74500691 9.36217439 33.21139652 9.359268 31.67788195 9.34719019 C29.59909265 9.33206823 27.5227215 9.34748522 25.44406033 9.3707943 C23.7097662 9.37201194 23.7097662 9.37201194 21.94043583 9.37325418 C18.85561179 9.77670685 18.85561179 9.77670685 16.6288811 12.11716807 Z " fill="#FDFDFD" transform="translate(0,0)"/>
<path d="M0 0 C120.78 0 241.56 0 366 0 C366 6.93 366 13.86 366 21 C245.22 21 124.44 21 0 21 C0 14.07 0 7.14 0 0 Z " fill="#FDFDFD" transform="translate(27,341)"/>
<path d="M0 0 C120.78 0 241.56 0 366 0 C366 6.93 366 13.86 366 21 C245.22 21 124.44 21 0 21 C0 14.07 0 7.14 0 0 Z " fill="#FDFDFD" transform="translate(27,309)"/>
<path d="M0 0 C120.78 0 241.56 0 366 0 C366 6.93 366 13.86 366 21 C245.22 21 124.44 21 0 21 C0 14.07 0 7.14 0 0 Z " fill="#FDFDFD" transform="translate(27,277)"/>
<path d="M0 0 C120.78 0 241.56 0 366 0 C366 6.93 366 13.86 366 21 C245.22 21 124.44 21 0 21 C0 14.07 0 7.14 0 0 Z " fill="#FDFDFD" transform="translate(27,245)"/>
<path d="M0 0 C120.78 0 241.56 0 366 0 C366 6.93 366 13.86 366 21 C245.22 21 124.44 21 0 21 C0 14.07 0 7.14 0 0 Z " fill="#FDFDFD" transform="translate(27,213)"/>
<path d="M0 0 C120.78 0 241.56 0 366 0 C366 6.93 366 13.86 366 21 C245.22 21 124.44 21 0 21 C0 14.07 0 7.14 0 0 Z " fill="#FDFDFD" transform="translate(27,181)"/>
<path d="M0 0 C120.78 0 241.56 0 366 0 C366 6.93 366 13.86 366 21 C245.22 21 124.44 21 0 21 C0 14.07 0 7.14 0 0 Z " fill="#FDFDFD" transform="translate(27,149)"/>
<path d="M0 0 C120.78 0 241.56 0 366 0 C366 6.93 366 13.86 366 21 C245.22 21 124.44 21 0 21 C0 14.07 0 7.14 0 0 Z " fill="#FDFDFD" transform="translate(27,117)"/>
<path d="M0 0 C120.78 0 241.56 0 366 0 C366 6.93 366 13.86 366 21 C245.22 21 124.44 21 0 21 C0 14.07 0 7.14 0 0 Z " fill="#FDFDFD" transform="translate(27,85)"/>
<path d="M0 0 C120.78 0 241.56 0 366 0 C366 6.93 366 13.86 366 21 C245.22 21 124.44 21 0 21 C0 14.07 0 7.14 0 0 Z " fill="#FDFDFD" transform="translate(27,53)"/>
<path d="M0 0 C120.78 0 241.56 0 366 0 C366 6.6 366 13.2 366 20 C245.22 20 124.44 20 0 20 C0 13.4 0 6.8 0 0 Z " fill="#FDFDFD" transform="translate(27,373)"/>
<path d="M0 0 C120.78 0 241.56 0 366 0 C366 6.27 366 12.54 366 19 C245.22 19 124.44 19 0 19 C0 12.73 0 6.46 0 0 Z " fill="#FCFCFC" transform="translate(27,23)"/>
<path d="M0 0 C123.09 0 246.18 0 373 0 C373 22.44 373 44.88 373 68 C250.24 67.67 127.48 67.34 1 67 C1 66.01 1 65.02 1 64 C122.77 63.67 244.54 63.34 370 63 C370.33 62.01 370.66 61.02 371 60 C248.9 59.67 126.8 59.34 1 59 C0.67 50.09 0.34 41.18 0 32 C122.76 32 245.52 32 372 32 C371.67 31.01 371.34 30.02 371 29 C248.9 28.67 126.8 28.34 1 28 C0.67 18.76 0.34 9.52 0 0 Z M3 5 C3 11.93 3 18.86 3 26 C123.78 26 244.56 26 369 26 C369 19.07 369 12.14 369 5 C248.22 5 127.44 5 3 5 Z M3 37 C3 43.6 3 50.2 3 57 C123.78 57 244.56 57 369 57 C369 50.4 369 43.8 369 37 C248.22 37 127.44 37 3 37 Z " fill="#999999" transform="translate(24,336)"/>
<path d="M0 0 C122.76 0.33 245.52 0.66 372 1 C373.15033784 37.81081081 373.15033784 37.81081081 373.0625 49.5 C373.05798828 50.73878906 373.05347656 51.97757812 373.04882812 53.25390625 C373.03752801 56.16933611 373.02147541 59.08463092 373 62 C372.34 61.67 371.68 61.34 371 61 C368.9937836 60.90001977 366.98417772 60.86608832 364.97547722 60.8613348 C363.03621953 60.85312313 363.03621953 60.85312313 361.05778491 60.84474558 C359.60947671 60.84366923 358.16116843 60.84268457 356.71286011 60.84178162 C355.18495653 60.83721881 353.65705421 60.83221921 352.12915337 60.82681805 C347.9150925 60.81319544 343.70103973 60.8058067 339.48696256 60.79939139 C334.94843164 60.7914055 330.40991768 60.77770152 325.87139893 60.76467896 C318.00295414 60.74289044 310.13450767 60.72475466 302.26604843 60.70907402 C290.88946564 60.68639698 279.51290159 60.65825118 268.13633467 60.62875474 C249.68025352 60.58105222 231.22416471 60.53779527 212.76806641 60.49731445 C194.83576868 60.45797305 176.90347776 60.41655009 158.97119141 60.37231445 C157.31419703 60.36822804 157.31419703 60.36822804 155.62372802 60.36405908 C150.08216284 60.35037983 144.54059776 60.33665951 138.99903274 60.32291877 C92.99936931 60.20891222 46.99969109 60.10218587 1 60 C0.67 50.76 0.34 41.52 0 32 C122.43 32 244.86 32 371 32 C371 31.01 371 30.02 371 29 C248.9 28.67 126.8 28.34 1 28 C0.67 18.76 0.34 9.52 0 0 Z M3 5 C3 11.93 3 18.86 3 26 C123.78 26 244.56 26 369 26 C369 19.07 369 12.14 369 5 C248.22 5 127.44 5 3 5 Z M3 37 C3 43.93 3 50.86 3 58 C123.78 58 244.56 58 369 58 C369 51.07 369 44.14 369 37 C248.22 37 127.44 37 3 37 Z " fill="#9D9D9D" transform="translate(24,208)"/>
<path d="M0 0 C48.32461368 -0.11437626 96.64921372 -0.20251373 144.97393606 -0.25532665 C150.67557674 -0.26158039 156.37721715 -0.26805198 162.07885742 -0.2746582 C163.78154051 -0.27662553 163.78154051 -0.27662553 165.51862124 -0.2786326 C183.91255258 -0.30040533 202.30640599 -0.33983714 220.70029106 -0.38576398 C239.56586737 -0.43247666 258.43140279 -0.46028441 277.29703456 -0.47044247 C288.94368076 -0.4773124 300.59010676 -0.49903149 312.23668519 -0.53958233 C320.21681934 -0.56595665 328.19683919 -0.57401306 336.17701378 -0.56750689 C340.78526574 -0.56429571 345.39313218 -0.56931185 350.00131607 -0.59602737 C354.2176635 -0.62029345 358.43336483 -0.62163126 362.64974151 -0.60449447 C364.17742417 -0.60237539 365.70514656 -0.60877464 367.23275062 -0.62441591 C369.30601559 -0.64441497 371.37693288 -0.63371583 373.45016003 -0.61523914 C374.60261123 -0.61713775 375.75506243 -0.61903635 376.9424364 -0.62099248 C381.06321103 0.21593862 382.51870875 1.64122275 385 5 C385.62444448 8.13516665 385.62444448 8.13516665 385.62361908 11.73889923 C385.6336211 12.74060238 385.6336211 12.74060238 385.64382517 13.76254195 C385.66009398 16.00476423 385.64067267 18.2452483 385.62145996 20.48742676 C385.62578812 22.10923218 385.63230336 23.73103299 385.64082003 25.35282183 C385.65784467 29.81288683 385.64360741 34.27239214 385.62430525 38.73242784 C385.60890371 43.54095547 385.62227352 48.34941337 385.63204956 53.15794373 C385.64659185 62.57919402 385.63432625 72.00022915 385.61293632 81.42145908 C385.5889507 92.3876197 385.59063919 103.35373075 385.59324223 114.31991178 C385.59693426 133.88340391 385.57609086 153.44679452 385.54199219 173.01025391 C385.50889966 192.00344407 385.49473369 210.99652768 385.50097656 229.98974609 C385.5077375 250.66083376 385.50528877 271.33187675 385.48561716 292.00295782 C385.48405793 293.64192481 385.48405793 293.64192481 385.4824672 295.31400225 C385.48037627 297.5086616 385.4782653 299.70332093 385.47613403 301.89798024 C385.46923252 309.54605004 385.46857011 317.19410609 385.47001648 324.84217834 C385.4714548 334.15975321 385.46179066 343.47724107 385.43807012 352.79478705 C385.42619356 357.55080278 385.41909598 362.3066971 385.42490768 367.06272697 C385.43006759 371.41385043 385.42143362 375.76471705 385.40163308 380.11579651 C385.39688108 381.69243451 385.39720883 383.26909742 385.40304345 384.84573179 C385.41019536 386.9844958 385.39899336 389.12240186 385.38311005 391.26110077 C385.38153884 392.45033252 385.37996764 393.63956428 385.37834883 394.86483335 C384.96004926 398.3310496 384.07814752 400.22059853 382 403 C379.21335339 404.39332331 376.93727647 404.13071348 373.8176527 404.13701439 C373.17357262 404.13966622 372.52949254 404.14231804 371.86589488 404.14505023 C369.68688321 404.15276834 367.50792765 404.15330335 365.3289032 404.15390015 C363.7591905 404.15791311 362.18947884 404.16235105 360.61976844 404.1671797 C356.28994133 404.17916943 351.96012537 404.18479919 347.63028491 404.18936086 C342.96691505 404.19530779 338.30355859 404.20691981 333.64019775 404.21765137 C322.37061518 404.2421949 311.10102816 404.25680469 299.83142707 404.26971143 C296.65024702 404.27342172 293.46906742 404.27739508 290.28788781 404.2814641 C270.5472976 404.3066972 250.80670672 404.32875756 231.06610394 404.34119225 C226.49174179 404.3441221 221.91737967 404.34708374 217.34301758 404.35009766 C216.20603591 404.35084371 215.06905423 404.35158976 213.89761857 404.35235842 C195.46824276 404.36501924 177.03896327 404.39825104 158.60963251 404.43989949 C139.70330692 404.4822769 120.7970307 404.50588236 101.89065772 404.51111281 C91.2694282 404.51453152 80.64834925 404.52634091 70.02716637 404.55921555 C60.98399373 404.58715955 51.94100251 404.59824027 42.89779004 404.58702008 C38.2814293 404.58181906 33.6654488 404.58481344 29.04914284 404.60948563 C24.82546412 404.6318716 20.60244112 404.63132203 16.37875173 404.61228175 C14.84844111 404.6094667 13.31808702 404.61516334 11.78784665 404.63009469 C9.71105054 404.64912473 7.63661122 404.63746888 5.55987072 404.61803246 C3.82826349 404.62006725 3.82826349 404.62006725 2.0616743 404.62214315 C-2.06201617 403.78419452 -3.51773867 402.36221789 -6 399 C-6.62444448 395.85727066 -6.62444448 395.85727066 -6.62361908 392.24269009 C-6.63028709 391.57290002 -6.6369551 390.90310995 -6.64382517 390.21302322 C-6.66009443 387.96405004 -6.64067238 385.71680974 -6.62145996 383.46788025 C-6.6257881 381.84123736 -6.63230331 380.21459906 -6.64082003 378.5879727 C-6.65784483 374.11457609 -6.64360732 369.64173751 -6.62430525 365.16837013 C-6.60890395 360.34554662 -6.62227342 355.52279265 -6.63204956 350.69996643 C-6.64659165 341.2509779 -6.63432667 331.80220389 -6.61293632 322.35323565 C-6.58895227 311.35583887 -6.59063907 300.35849152 -6.59324223 289.3610744 C-6.59693419 269.74319442 -6.57609092 250.12541568 -6.54199219 230.50756836 C-6.50889517 211.45903973 -6.49473445 192.41061735 -6.50097656 173.36206055 C-6.50773625 152.63201887 -6.50529267 131.90202173 -6.48561716 111.17198664 C-6.48457768 110.07643173 -6.48353819 108.98087682 -6.4824672 107.85212328 C-6.48037627 105.65158951 -6.47826529 103.45105576 -6.47613403 101.25052203 C-6.46923053 93.57944011 -6.46857043 85.9083719 -6.47001648 78.23728752 C-6.47145422 68.89333373 -6.4618011 59.54946675 -6.43807012 50.20554178 C-6.42618714 45.43547316 -6.41910022 40.66552571 -6.42490768 35.89544296 C-6.43006246 31.53265263 -6.42145198 27.17011877 -6.40163308 22.8073724 C-6.39687575 21.22536863 -6.39721555 19.64334003 -6.40304345 18.06133985 C-6.41017982 15.91774085 -6.39901653 13.77500232 -6.38311005 11.63146877 C-6.38153884 10.43881954 -6.37996764 9.2461703 -6.37834883 8.01738018 C-5.96895839 4.75243923 -5.21404444 3.37825792 -3 1 C-2.34 1.33 -1.68 1.66 -1 2 C-1.66 2.66 -2.32 3.32 -3 4 C-3.30918163 6.91879304 -3.30918163 6.91879304 -3.26171303 10.41495705 C-3.26570909 11.08417234 -3.26970515 11.75338763 -3.27382231 12.44288218 C-3.28487693 14.70740676 -3.28158412 16.97169024 -3.2784729 19.23623657 C-3.28347122 20.86726166 -3.28934564 22.49828427 -3.29602563 24.12930334 C-3.31189585 28.62841885 -3.31526015 33.12747205 -3.31667423 37.62661219 C-3.32035609 42.47190299 -3.3355054 47.31715912 -3.34928894 52.16242981 C-3.37160392 60.56289942 -3.38659167 68.96335677 -3.39665604 77.36384964 C-3.41121808 89.50967072 -3.43674786 101.65544907 -3.46498732 113.80124514 C-3.51050043 133.50518078 -3.54709651 153.20912256 -3.578125 172.91308594 C-3.60829207 192.05795369 -3.64265669 211.20280633 -3.68261719 230.34765625 C-3.6850987 231.53903395 -3.6875802 232.73041165 -3.69013691 233.9578917 C-3.70957571 243.2747225 -3.72925861 252.59155277 -3.74901867 261.90838289 C-3.84587525 307.60557028 -3.92143269 353.30277044 -4 399 C123.05 399 250.1 399 381 399 C381 398.34 381 397.68 381 397 C381.66 397 382.32 397 383 397 C382.94117648 346.96813257 382.86667424 296.93630975 382.77101372 246.90449844 C382.75974496 241.00371532 382.7486066 235.10293196 382.73754883 229.20214844 C382.7342433 227.43996796 382.7342433 227.43996796 382.730871 225.64218788 C382.69545591 206.59639224 382.67061559 187.55059665 382.64965298 168.50478025 C382.62792442 148.97586984 382.59490218 129.44700232 382.55129844 109.91812837 C382.52473085 97.85851859 382.50707315 85.79896229 382.50065396 73.73932467 C382.49541565 65.48027355 382.47925143 57.22128985 382.45433434 48.9622748 C382.44026569 44.19046623 382.4311684 39.41877849 382.43499184 34.64694786 C382.43838132 30.28467564 382.42815833 25.92266232 382.40676448 21.56044321 C382.40145987 19.97630854 382.4012997 18.39214723 382.40660437 16.80801256 C382.41304969 14.66626731 382.40132555 12.52539436 382.38476086 10.38372231 C382.38286225 9.19064103 382.38096365 7.99755975 382.37900752 6.76832449 C382.25393504 5.85477741 382.12886256 4.94123033 382 4 C378.44188207 1.62792138 376.93369387 1.74664977 372.71187305 1.73828697 C372.0685179 1.73429091 371.42516274 1.73029485 370.76231197 1.72617769 C368.59177486 1.7151492 366.4214904 1.71841224 364.25093079 1.7215271 C362.68503933 1.7165273 361.11915047 1.71065244 359.55326527 1.70397437 C355.23883372 1.68812204 350.92446719 1.68474082 346.61001003 1.68332577 C341.96173858 1.67964082 337.31350319 1.66448992 332.66525269 1.65071106 C324.60802396 1.62840587 316.55080801 1.61341221 308.49355507 1.60334396 C296.8440345 1.58877635 285.1945584 1.56324497 273.54506388 1.53501268 C254.64585838 1.48950974 235.74664649 1.45290944 216.84741211 1.421875 C198.48542152 1.39170378 180.12344658 1.35736009 161.76147461 1.31738281 C160.63019146 1.31492126 159.4989083 1.31245972 158.33334384 1.30992357 C152.65819259 1.29754925 146.98304152 1.28509266 141.30789053 1.27259517 C94.20528216 1.16897496 47.10265436 1.07978903 0 1 C0 0.67 0 0.34 0 0 Z " fill="#8E8E8E" transform="translate(21,10)"/>
<path d="M0 0 C125.73 0.33 251.46 0.66 381 1 C381 1.33 381 1.66 381 2 C255.6 2.33 130.2 2.66 1 3 C4.29960141 4.6498007 7.99127884 4.38258361 11.625 4.5625 C12.82769531 4.62727539 12.82769531 4.62727539 14.0546875 4.69335938 C16.0362511 4.79951457 18.01810271 4.90026855 20 5 C20 5.33 20 5.66 20 6 C14.39 6 8.78 6 3 6 C3.33 7.65 3.66 9.3 4 11 C4.08616098 12.88437292 4.12203064 14.7714064 4.12025452 16.65774727 C4.12162887 17.7927382 4.12300322 18.92772913 4.12441921 20.09711373 C4.12082425 21.33955625 4.11722929 22.58199877 4.11352539 23.86209106 C4.1132453 25.19949271 4.11340849 26.53689451 4.11397648 27.87429607 C4.11427212 31.54987374 4.10833513 35.22541912 4.10140657 38.90098929 C4.09503222 42.8678289 4.0944631 46.83466973 4.0932312 50.80151367 C4.09034123 57.68597047 4.08389412 64.57041656 4.07516479 71.45486832 C4.06257151 81.46415394 4.05652346 91.47343563 4.05223143 101.48272787 C4.04515491 117.79561726 4.03435685 134.10850173 4.02050781 150.42138672 C4.01968 151.39806548 4.01885219 152.37474425 4.01799929 153.38101934 C4.01044073 162.25928242 4.0026412 171.13754528 3.99479675 180.01580811 C3.98962918 185.871053 3.98452686 191.72629795 3.97949219 197.58154297 C3.97866406 198.54307632 3.97783593 199.50460967 3.97698271 200.4952804 C3.96315921 216.69215122 3.95347058 232.88902212 3.94658184 249.08589733 C3.94255354 258.14911971 3.93640932 267.21233088 3.92483521 276.27554703 C3.87528194 315.53070664 3.96792388 354.75489796 5 394 C6.32 394.33 7.64 394.66 9 395 C7.875 396.5 7.875 396.5 6 398 C2.875 398.25 2.875 398.25 0 398 C-1.83902918 396.16097082 -1.12550643 393.19544249 -1.12584114 390.73208809 C-1.12729458 390.0666138 -1.12874802 389.40113952 -1.13024551 388.71549934 C-1.13393113 386.45770036 -1.13040732 384.19996782 -1.12698364 381.94216919 C-1.12813446 380.31827251 -1.12972171 378.69437609 -1.13171089 377.07048023 C-1.13590978 372.58630434 -1.133811 368.10214956 -1.13072467 363.61797357 C-1.12847301 358.79034798 -1.13194903 353.96272617 -1.13470459 349.13510132 C-1.13916401 339.66859664 -1.138185 330.20209987 -1.13529195 320.73559488 C-1.13303832 313.0444718 -1.13272522 305.35335095 -1.13381577 297.66222763 C-1.133969 296.56973696 -1.13412223 295.47724629 -1.13428011 294.35164984 C-1.13459982 292.13261057 -1.13492403 289.91357129 -1.1352527 287.69453202 C-1.13810806 266.85897965 -1.13481973 246.02343167 -1.12945233 225.18788002 C-1.12498549 207.2940337 -1.12575913 189.40019386 -1.13037109 171.50634766 C-1.13571802 150.75109051 -1.13783204 129.99583722 -1.13475883 109.24057949 C-1.13444027 107.02885429 -1.1341259 104.8171291 -1.13381577 102.6054039 C-1.13366149 101.51706158 -1.13350721 100.42871926 -1.13334826 99.30739687 C-1.13248337 91.62286981 -1.13394542 83.93834519 -1.13629532 76.25381851 C-1.13909488 66.89257362 -1.13835179 57.53133712 -1.13301457 48.17009319 C-1.13037949 43.39008093 -1.12936924 38.61008267 -1.13266373 33.8300705 C-1.1356307 29.45924469 -1.1340271 25.08844595 -1.12868617 20.71762262 C-1.1275637 19.13147262 -1.12814945 17.54532035 -1.13056196 15.95917179 C-1.13357786 13.81261285 -1.13050897 11.66614811 -1.12584114 9.51959419 C-1.12567879 8.32439695 -1.12551644 7.1291997 -1.12534916 5.89778435 C-1 3 -1 3 0 0 Z " fill="#D8D9D9" transform="translate(19,10)"/>
<path d="M0 0 C122.76 0.33 245.52 0.66 372 1 C372.33 10.57 372.66 20.14 373 30 C372.34 29.67 371.68 29.34 371 29 C369.00075472 28.90406171 366.99822705 28.87444923 364.99668121 28.87415886 C363.70855955 28.87155111 362.42043788 28.86894336 361.09328222 28.86625659 C359.65028209 28.86841899 358.20728209 28.87067567 356.76428223 28.87301636 C355.24192979 28.8718652 353.71957762 28.87027772 352.19722605 28.86828911 C347.99841775 28.86409503 343.79963204 28.86618684 339.60082364 28.86927533 C335.07862265 28.87152889 330.55642567 28.86805004 326.03422546 28.86529541 C317.16911153 28.86083825 308.30400604 28.86181394 299.43889177 28.86470805 C292.23691448 28.86696229 285.03493957 28.86727452 277.83296204 28.86618423 C276.80970216 28.866031 275.78644229 28.86587777 274.73217455 28.86571989 C272.65373607 28.86540018 270.5752976 28.86507597 268.49685913 28.8647473 C248.98661819 28.86189267 229.47638194 28.86517927 209.96614176 28.87054767 C193.20903356 28.87501569 176.45193229 28.87423975 159.69482422 28.86962891 C140.25654724 28.86428285 120.81827438 28.86216736 101.37999678 28.86524117 C99.30901051 28.86555973 97.23802424 28.8658741 95.16703796 28.86618423 C94.14795267 28.86633851 93.12886739 28.86649279 92.07890072 28.86665174 C84.88180786 28.8675168 77.68471759 28.86605425 70.48762512 28.86370468 C61.72218788 28.86090614 52.95675961 28.86164609 44.1913234 28.86698543 C39.71521774 28.86962171 35.23912704 28.87062873 30.76302147 28.86733627 C26.67108427 28.86437182 22.579176 28.86596865 18.48724145 28.87131383 C17.00140766 28.87243737 15.51557146 28.87184821 14.0297392 28.86943804 C12.02093404 28.86642775 10.01212209 28.87009212 8.00331879 28.87415886 C6.32468254 28.87440239 6.32468254 28.87440239 4.61213446 28.87465084 C2.01759246 28.82294219 2.01759246 28.82294219 0 30 C0 20.1 0 10.2 0 0 Z M3 5 C3 11.93 3 18.86 3 26 C123.78 26 244.56 26 369 26 C369 19.07 369 12.14 369 5 C248.22 5 127.44 5 3 5 Z " fill="#999999" transform="translate(24,272)"/>
<path d="M0 0 C122.76 0.33 245.52 0.66 372 1 C372.33 10.57 372.66 20.14 373 30 C372.34 29.67 371.68 29.34 371 29 C368.9884486 28.9049079 366.97365752 28.87627321 364.95985985 28.87695217 C363.66353799 28.87496112 362.36721614 28.87297007 361.0316118 28.87091869 C359.5793731 28.87377212 358.12713458 28.87671772 356.67489624 28.87974548 C355.14286901 28.87930979 353.61084186 28.87843493 352.0788151 28.87715632 C347.85334047 28.8749109 343.62789099 28.87893328 339.40241957 28.88393438 C334.85162829 28.88823802 330.30083852 28.88679252 325.75004578 28.8860321 C317.86031125 28.88550681 309.97058496 28.88865414 302.08085251 28.89426994 C290.67351169 28.90238426 279.26617487 28.90500009 267.85883148 28.90625793 C249.35282549 28.90844856 230.84682391 28.91510894 212.34082031 28.92456055 C194.36002627 28.93373439 176.37923341 28.94081536 158.3984375 28.94506836 C157.29078759 28.94533108 156.18313768 28.94559381 155.04192261 28.94586449 C149.48537345 28.94716949 143.92882429 28.94843321 138.37227511 28.94967639 C92.24818021 28.96004934 46.12409067 28.97794245 0 29 C0 19.43 0 9.86 0 0 Z M3 5 C3 11.93 3 18.86 3 26 C123.78 26 244.56 26 369 26 C369 19.07 369 12.14 369 5 C248.22 5 127.44 5 3 5 Z " fill="#989899" transform="translate(24,176)"/>
<path d="M0 0 C123.09 0 246.18 0 373 0 C372.67 9.24 372.34 18.48 372 28 C249.57 28 127.14 28 1 28 C0.67 18.76 0.34 9.52 0 0 Z M3 5 C3 11.93 3 18.86 3 26 C123.78 26 244.56 26 369 26 C369 19.07 369 12.14 369 5 C248.22 5 127.44 5 3 5 Z " fill="#979798" transform="translate(24,144)"/>
<path d="M0 0 C122.76 0.33 245.52 0.66 372 1 C372.33 10.57 372.66 20.14 373 30 C372.34 29.67 371.68 29.34 371 29 C368.9937836 28.90001977 366.98417772 28.86608832 364.97547722 28.8613348 C363.03621953 28.85312313 363.03621953 28.85312313 361.05778491 28.84474558 C359.60947671 28.84366923 358.16116843 28.84268457 356.71286011 28.84178162 C355.18495653 28.83721881 353.65705421 28.83221921 352.12915337 28.82681805 C347.9150925 28.81319544 343.70103973 28.8058067 339.48696256 28.79939139 C334.94843164 28.7914055 330.40991768 28.77770152 325.87139893 28.76467896 C318.00295414 28.74289044 310.13450767 28.72475466 302.26604843 28.70907402 C290.88946564 28.68639698 279.51290159 28.65825118 268.13633467 28.62875474 C249.68025352 28.58105222 231.22416471 28.53779527 212.76806641 28.49731445 C194.83576868 28.45797305 176.90347776 28.41655009 158.97119141 28.37231445 C157.31419703 28.36822804 157.31419703 28.36822804 155.62372802 28.36405908 C150.08216284 28.35037983 144.54059776 28.33665951 138.99903274 28.32291877 C92.99936931 28.20891222 46.99969109 28.10218587 1 28 C0.67 18.76 0.34 9.52 0 0 Z M3 5 C3 11.93 3 18.86 3 26 C123.78 26 244.56 26 369 26 C369 19.07 369 12.14 369 5 C248.22 5 127.44 5 3 5 Z " fill="#989898" transform="translate(24,304)"/>
<path d="M0 0 C0.33 0 0.66 0 1 0 C0.67 9.57 0.34 19.14 0 29 C-122.43 29 -244.86 29 -371 29 C-371 20.09 -371 11.18 -371 2 C-369.09404084 1.99576806 -367.18808168 1.99153612 -365.22436619 1.98717594 C-320.03077213 1.88660744 -274.83719247 1.78091886 -229.64362532 1.66888306 C-224.08704263 1.65511267 -218.53045982 1.64138569 -212.97387695 1.62768555 C-211.8676118 1.62495724 -210.76134664 1.62222894 -209.6215583 1.61941796 C-191.6840953 1.57528371 -173.74662595 1.53467054 -155.80915184 1.49534739 C-137.41818544 1.45495213 -119.02723088 1.41079906 -100.63628191 1.36312145 C-89.27839386 1.33379623 -77.92050676 1.30743946 -66.56260335 1.28482103 C-58.78528492 1.26905293 -51.00798099 1.24965107 -43.23067863 1.22733159 C-38.73648909 1.21454324 -34.24231078 1.20341454 -29.74810791 1.19658089 C-25.64071365 1.19030024 -21.53335803 1.1794985 -17.42598491 1.1649667 C-15.93338361 1.16050804 -14.44077608 1.15776663 -12.9481684 1.15683801 C-10.93259537 1.15534303 -8.91703041 1.14721311 -6.90147495 1.1386652 C-5.7778825 1.13600716 -4.65429004 1.13334911 -3.49664932 1.13061053 C-1.05925491 1.28232153 -1.05925491 1.28232153 0 0 Z M-369 6 C-369 12.93 -369 19.86 -369 27 C-248.22 27 -127.44 27 -3 27 C-3 20.07 -3 13.14 -3 6 C-123.78 6 -244.56 6 -369 6 Z " fill="#A9AAAA" transform="translate(396,79)"/>
<path d="M0 0 C122.43 0 244.86 0 371 0 C371.33 9.24 371.66 18.48 372 28 C248.91 28 125.82 28 -1 28 C-0.67 18.76 -0.34 9.52 0 0 Z M2 4 C2 10.93 2 17.86 2 25 C122.78 25 243.56 25 368 25 C368 18.07 368 11.14 368 4 C247.22 4 126.44 4 2 4 Z " fill="#ACACAC" transform="translate(25,113)"/>
<path d="M0 0 C4.02492236 8.04984472 0.35971235 18.00719137 0 27 C-122.1 27 -244.2 27 -370 27 C-370 18.42 -370 9.84 -370 1 C-186.85 0.505 -186.85 0.505 0 0 Z M-368 5 C-368 11.93 -368 18.86 -368 26 C-247.22 26 -126.44 26 -2 26 C-2 19.07 -2 12.14 -2 5 C-122.78 5 -243.56 5 -368 5 Z " fill="#8E8E8E" transform="translate(395,48)"/>
<path d="M0 0 C122.43 0 244.86 0 371 0 C370.67 7.92 370.34 15.84 370 24 C247.9 24 125.8 24 0 24 C0 16.08 0 8.16 0 0 Z M2 4 C2 10.27 2 16.54 2 23 C122.78 23 243.56 23 368 23 C368 16.73 368 10.46 368 4 C247.22 4 126.44 4 2 4 Z " fill="#838484" transform="translate(25,19)"/>
<path d="M0 0 C122.1 0 244.2 0 370 0 C370 8.25 370 16.5 370 25 C369.67 25 369.34 25 369 25 C369 17.74 369 10.48 369 3 C247.89 3 126.78 3 2 3 C2 9.93 2 16.86 2 24 C122.78 24 243.56 24 368 24 C368 24.66 368 25.32 368 26 C246.56 26 125.12 26 0 26 C0 17.42 0 8.84 0 0 Z " fill="#919191" transform="translate(25,210)"/>
<path d="M0 0 C121.77 0 243.54 0 369 0 C369.33 1.32 369.66 2.64 370 4 C369 5 369 5 366.50335068 5.1241985 C365.37975822 5.12381878 364.25616576 5.12343906 363.09852505 5.12304783 C361.80767764 5.12503888 360.51683022 5.12702993 359.18686622 5.12908131 C357.73561551 5.12622771 356.28436498 5.1232821 354.83311462 5.12025452 C353.30607525 5.12069008 351.77903595 5.12156472 350.25199705 5.12284368 C346.03566464 5.12509149 341.81935738 5.12106348 337.60302818 5.11606562 C333.0638077 5.11176538 328.52458876 5.11320724 323.98536682 5.1139679 C316.11416726 5.1144934 308.24297597 5.11134382 300.37177849 5.10573006 C288.99121076 5.09761866 277.61064704 5.09500021 266.23007674 5.09374207 C247.76788418 5.09155098 229.30569602 5.08488936 210.84350586 5.07543945 C192.90437848 5.0662668 174.9652523 5.05918525 157.02612305 5.05493164 C155.92119741 5.05466892 154.81627177 5.05440619 153.67786353 5.05413551 C148.13502781 5.05283051 142.59219208 5.0515668 137.04935634 5.05032361 C91.03290117 5.03994923 45.01645081 5.02232937 -1 5 C-0.67 3.35 -0.34 1.7 0 0 Z " fill="#DFDFDF" transform="translate(26,236)"/>
<path d="M0 0 C123.09 0 246.18 0 373 0 C373 19.47 373 38.94 373 59 C249.91 59 126.82 59 0 59 C0 49.43 0 39.86 0 30 C122.43 30 244.86 30 371 30 C371 30.33 371 30.66 371 31 C248.9 31 126.8 31 1 31 C1 39.58 1 48.16 1 57 C123.1 57 245.2 57 371 57 C371 47.1 371 37.2 371 27 C248.57 27 126.14 27 0 27 C0 18.09 0 9.18 0 0 Z M1 1 C1 8.92 1 16.84 1 25 C123.1 25 245.2 25 371 25 C371.33 17.08 371.66 9.16 372 1 C249.57 1 127.14 1 1 1 Z " fill="#C0C1C1" transform="translate(24,18)"/>
<path d="M0 0 C121.77 0 243.54 0 369 0 C369.33 1.32 369.66 2.64 370 4 C247.57 4 125.14 4 -1 4 C-0.67 2.68 -0.34 1.36 0 0 Z " fill="#E3E3E3" transform="translate(26,364)"/>
<path d="M0 0 C121.77 0 243.54 0 369 0 C369.33 1.32 369.66 2.64 370 4 C247.57 4 125.14 4 -1 4 C-0.67 2.68 -0.34 1.36 0 0 Z " fill="#DDDDDD" transform="translate(26,268)"/>
<path d="M0 0 C121.77 0 243.54 0 369 0 C369.33 1.32 369.66 2.64 370 4 C247.57 4 125.14 4 -1 4 C-0.67 2.68 -0.34 1.36 0 0 Z " fill="#E3E3E3" transform="translate(26,204)"/>
<path d="M0 0 C0.99 0.66 1.98 1.32 3 2 C3.37259549 4.76832449 3.37259549 4.76832449 3.36914349 8.38372231 C3.37260502 9.04956085 3.37606655 9.7153994 3.37963298 10.40141487 C3.38763607 12.65460039 3.37406429 14.9071554 3.36076355 17.16030884 C3.36207058 18.78308303 3.3646951 20.40585661 3.36853105 22.0286268 C3.37526821 26.50500688 3.36319921 30.98117336 3.34819686 35.45752621 C3.33528708 40.27825878 3.33962236 45.09897852 3.34190369 49.91972351 C3.34347964 58.27766416 3.33403691 66.63553476 3.31719017 74.99345779 C3.29284819 87.07772216 3.28499983 99.16195252 3.2812262 111.24623875 C3.27465416 130.85037631 3.25467261 150.4544765 3.22631836 170.05859375 C3.19879724 189.10644341 3.17755414 208.15428292 3.16479492 227.20214844 C3.16400675 228.37551225 3.16321858 229.54887607 3.16240653 230.75779636 C3.15849152 236.64399503 3.15470037 242.53019377 3.15097082 248.41639256 C3.11985148 297.27762088 3.06699524 346.13880862 3 395 C2.34 395 1.68 395 1 395 C1 395.66 1 396.32 1 397 C-1.79183063 398.39591531 -4.07111044 398.12407383 -7.19631386 398.12304783 C-7.84189192 398.12420167 -8.48746998 398.12535552 -9.15261102 398.12654433 C-11.33668015 398.12921144 -13.52067698 398.12468806 -15.70474243 398.12025452 C-17.27801766 398.1206902 -18.85129281 398.12156505 -20.42456758 398.12284368 C-24.7640577 398.12508922 -29.10352333 398.12106654 -33.44301033 398.11606562 C-38.11650214 398.11176216 -42.78999248 398.11320747 -47.46348572 398.1139679 C-55.5660294 398.1144932 -63.66856506 398.11134575 -71.77110672 398.10573006 C-83.48613843 398.09761589 -95.20116623 398.09499992 -106.91620044 398.09374207 C-125.92134937 398.09155141 -144.92649402 398.08489097 -163.93164062 398.07543945 C-182.39746072 398.06626568 -200.86327965 398.05918467 -219.32910156 398.05493164 C-221.03538136 398.05453756 -221.03538136 398.05453756 -222.77613147 398.05413551 C-228.48252134 398.05283051 -234.18891122 398.05156679 -239.8953011 398.05032361 C-287.26353703 398.03995058 -334.63176831 398.02233191 -382 398 C-382 397.67 -382 397.34 -382 397 C-381.20379832 396.99826375 -380.40759664 396.9965275 -379.58726764 396.99473864 C-332.43201307 396.89178337 -285.27677271 396.78368666 -238.12154542 396.66888306 C-232.46368011 396.65511294 -226.8058147 396.64138593 -221.14794922 396.62768555 C-219.45833043 396.62359309 -219.45833043 396.62359309 -217.73457792 396.61941796 C-199.47904842 396.57530377 -181.22351272 396.53468363 -162.96797237 396.49534739 C-144.2458981 396.45492838 -125.52383535 396.41077166 -106.80177808 396.36312145 C-95.24275164 396.33382066 -83.68372609 396.30745984 -72.12468466 396.28482103 C-64.20577792 396.2690327 -56.2868853 396.24962451 -48.36799422 396.22733159 C-43.7944476 396.21456442 -39.22091186 396.20342983 -34.64735222 396.19658089 C-30.46393418 396.19028107 -26.28055365 396.17945715 -22.0971562 396.1649667 C-20.58027546 396.16052336 -19.06338868 396.1577699 -17.54650173 396.15683801 C-15.49093753 396.15533302 -13.4354825 396.14777767 -11.37994003 396.1386652 C-10.2362224 396.13600716 -9.09250476 396.13334911 -7.91412902 396.13061053 C-5.42657841 396.01911914 -3.36839431 395.7267251 -1 395 C-0.029286 385.66451179 0.13957494 376.39143052 0.12025452 367.01678467 C0.12069137 365.42662929 0.12156838 363.83647398 0.12284368 362.24631906 C0.12506618 357.90661915 0.12109831 353.5669442 0.11606562 349.22724748 C0.11172887 344.53620804 0.11320983 339.8451699 0.1139679 335.15412903 C0.11449109 327.03648294 0.11136565 318.91884492 0.10573006 310.80120087 C0.09758735 299.06459096 0.094997 287.32798494 0.09374207 275.59137252 C0.0915559 256.54740369 0.08490761 237.50343916 0.07543945 218.45947266 C0.06625408 199.96500673 0.05917875 181.47054197 0.05493164 162.97607422 C0.05466892 161.83520759 0.05440619 160.69434097 0.05413551 159.51890263 C0.05283043 153.79525096 0.05156673 148.07159928 0.05032361 142.3479476 C0.03996455 94.89862876 0.02235807 47.44931459 0 0 Z " fill="#C5C5C5" transform="translate(401,12)"/>
<path d="M0 0 C122.43 0 244.86 0 371 0 C371 0.99 371 1.98 371 3 C248.57 3 126.14 3 0 3 C0 2.01 0 1.02 0 0 Z " fill="#8E8E8E" transform="translate(25,400)"/>
<path d="M0 0 C122.43 0 244.86 0 371 0 C371 0.99 371 1.98 371 3 C248.57 3 126.14 3 0 3 C0 2.01 0 1.02 0 0 Z " fill="#E5E5E5" transform="translate(25,173)"/>
<path d="M0 0 C122.1 0 244.2 0 370 0 C370.33 0.99 370.66 1.98 371 3 C248.57 3 126.14 3 0 3 C0 2.01 0 1.02 0 0 Z " fill="#E9E9E9" transform="translate(25,140)"/>
<path d="M0 0 C122.1 0 244.2 0 370 0 C370.33 0.99 370.66 1.98 371 3 C248.57 3 126.14 3 0 3 C0 2.01 0 1.02 0 0 Z " fill="#E6E6E6" transform="translate(25,76)"/>
<path d="M0 0 C122.1 0 244.2 0 370 0 C370.33 0.99 370.66 1.98 371 3 C248.57 3 126.14 3 0 3 C0 2.01 0 1.02 0 0 Z " fill="#E5E5E5" transform="translate(25,44)"/>
<path d="M0 0 C121.77 0 243.54 0 369 0 C369.33 0.99 369.66 1.98 370 3 C247.57 3 125.14 3 -1 3 C-0.67 2.01 -0.34 1.02 0 0 Z " fill="#E4E4E4" transform="translate(26,395)"/>
<path d="M0 0 C121.77 0 243.54 0 369 0 C369.33 0.99 369.66 1.98 370 3 C247.57 3 125.14 3 -1 3 C-0.67 2.01 -0.34 1.02 0 0 Z " fill="#E5E5E5" transform="translate(26,332)"/>
<path d="M0 0 C0 8.25 0 16.5 0 25 C-0.66 25 -1.32 25 -2 25 C-2 17.74 -2 10.48 -2 3 C-122.78 3 -243.56 3 -368 3 C-368 10.26 -368 17.52 -368 25 C-368.33 25 -368.66 25 -369 25 C-369 17.08 -369 9.16 -369 1 C-322.13599666 0.87259024 -275.27199329 0.74519428 -228.40798986 0.61781773 C-222.88144962 0.60279656 -217.35490938 0.58777527 -211.82836914 0.57275391 C-210.72808522 0.56976329 -209.62780129 0.56677268 -208.49417543 0.56369144 C-190.65370448 0.51520006 -172.81323356 0.46669908 -154.97276265 0.41819459 C-136.68124713 0.36846402 -118.38973158 0.31874369 -100.098216 0.26903296 C-88.80174205 0.23833228 -77.50526813 0.20762351 -66.20879423 0.17690456 C-58.47353558 0.15587052 -50.7382769 0.13484639 -43.00301821 0.11383021 C-38.53313115 0.10168553 -34.0632441 0.08953632 -29.59335709 0.07737541 C-25.50818786 0.06626127 -21.4230186 0.05515946 -17.33784931 0.0440678 C-15.85331911 0.04003491 -14.36878893 0.03599734 -12.88425875 0.03195482 C-10.87958594 0.02649657 -8.87491308 0.0210564 -6.87024021 0.01561737 C-5.75272328 0.01257961 -4.63520635 0.00954185 -3.48382527 0.00641203 C-1 0 -1 0 0 0 Z " fill="#717071" transform="translate(395,114)"/>
<path d="M0 0 C0 8.25 0 16.5 0 25 C-0.66 25 -1.32 25 -2 25 C-2 17.74 -2 10.48 -2 3 C-122.78 3 -243.56 3 -368 3 C-368 10.26 -368 17.52 -368 25 C-368.33 25 -368.66 25 -369 25 C-369 17.08 -369 9.16 -369 1 C-322.13599666 0.87259024 -275.27199329 0.74519428 -228.40798986 0.61781773 C-222.88144962 0.60279656 -217.35490938 0.58777527 -211.82836914 0.57275391 C-210.72808522 0.56976329 -209.62780129 0.56677268 -208.49417543 0.56369144 C-190.65370448 0.51520006 -172.81323356 0.46669908 -154.97276265 0.41819459 C-136.68124713 0.36846402 -118.38973158 0.31874369 -100.098216 0.26903296 C-88.80174205 0.23833228 -77.50526813 0.20762351 -66.20879423 0.17690456 C-58.47353558 0.15587052 -50.7382769 0.13484639 -43.00301821 0.11383021 C-38.53313115 0.10168553 -34.0632441 0.08953632 -29.59335709 0.07737541 C-25.50818786 0.06626127 -21.4230186 0.05515946 -17.33784931 0.0440678 C-15.85331911 0.04003491 -14.36878893 0.03599734 -12.88425875 0.03195482 C-10.87958594 0.02649657 -8.87491308 0.0210564 -6.87024021 0.01561737 C-5.75272328 0.01257961 -4.63520635 0.00954185 -3.48382527 0.00641203 C-1 0 -1 0 0 0 Z " fill="#727272" transform="translate(395,82)"/>
<path d="M0 0 C120.45 0.33 240.9 0.66 365 1 C364.67 1.66 364.34 2.32 364 3 C243.55 3 123.1 3 -1 3 C-0.67 2.01 -0.34 1.02 0 0 Z " fill="#E9E9E9" transform="translate(26,268)"/>
<path d="M0 0 C3.96 0.33 7.92 0.66 12 1 C14.3549166 1.08124299 16.71128212 1.13288183 19.06759262 1.1386652 C20.97401492 1.14687687 20.97401492 1.14687687 22.9189508 1.15525442 C24.29067335 1.15633007 25.66239598 1.15731487 27.03411865 1.15821838 C28.52115517 1.16279442 30.00819043 1.16779594 31.49522424 1.17318195 C35.54987271 1.18665392 39.60451289 1.19414934 43.65917778 1.20060861 C48.04347571 1.20866114 52.42775663 1.22234197 56.81204224 1.23532104 C64.39765639 1.2570154 71.98327231 1.2751854 79.56890106 1.29092598 C90.53629492 1.31368905 101.5036699 1.34182275 112.47104767 1.37124526 C130.26714842 1.41884251 148.06325692 1.46212787 165.859375 1.50268555 C183.14128217 1.54208059 200.42318247 1.58351636 217.70507812 1.62768555 C219.30436573 1.63177196 219.30436573 1.63177196 220.93596217 1.63594092 C226.28501215 1.64962106 231.63406203 1.6633412 236.98311186 1.67708123 C281.32206022 1.79092235 325.66102347 1.89775889 370 2 C370 2.33 370 2.66 370 3 C248.56 3 127.12 3 2 3 C2 11.25 2 19.5 2 28 C1.67 28 1.34 28 1 28 C0.67 18.76 0.34 9.52 0 0 Z " fill="#A0A0A0" transform="translate(24,304)"/>
<path d="M0 0 C123.09 0 246.18 0 373 0 C372.67 8.58 372.34 17.16 372 26 C371.67 26 371.34 26 371 26 C371 18.08 371 10.16 371 2 C248.57 2 126.14 2 0 2 C0 1.34 0 0.68 0 0 Z " fill="#B8B8B8" transform="translate(24,336)"/>
<path d="M0 0 C0.99 0.495 0.99 0.495 2 1 C3.99579612 1.09995 5.99499638 1.1339106 7.99328804 1.1386652 C9.27915971 1.14413964 10.56503138 1.14961409 11.88986886 1.15525442 C13.33031656 1.15633077 14.77076433 1.15731543 16.21121216 1.15821838 C17.73086614 1.1627812 19.25051886 1.16778081 20.77017009 1.17318195 C24.9614278 1.18680441 29.15267737 1.19419326 33.34395146 1.20060861 C37.85794232 1.20859457 42.37191614 1.22229852 46.88589478 1.23532104 C54.71177768 1.25710946 62.53766229 1.27524527 70.36355972 1.29092598 C81.6786044 1.31360311 92.99363023 1.3417489 104.30865894 1.37124526 C122.66491145 1.41894767 141.02117166 1.46220465 159.37744141 1.50268555 C177.21273396 1.54202701 195.04801967 1.58344998 212.88330078 1.62768555 C213.98198971 1.63040982 215.08067863 1.63313409 216.21266116 1.63594092 C221.7242582 1.64962017 227.23585514 1.66334049 232.74745202 1.67708123 C278.49828709 1.79108761 324.24913695 1.89788774 370 2 C370 2.33 370 2.66 370 3 C248.56 3 127.12 3 2 3 C2 11.25 2 19.5 2 28 C1.67 28 1.34 28 1 28 C0.67 18.76 0.34 9.52 0 0 Z " fill="#9B9B9B" transform="translate(24,144)"/>
<path d="M0 0 C66.66 0 133.32 0 202 0 C202 0.33 202 0.66 202 1 C136.66 1 71.32 1 4 1 C4 1.66 4 2.32 4 3 C2.68 3 1.36 3 0 3 C0 2.01 0 1.02 0 0 Z " fill="#E1E1E1" transform="translate(25,140)"/>
<path d="M0 0 C39.93 0 79.86 0 121 0 C121.495 1.485 121.495 1.485 122 3 C118.7 3 115.4 3 112 3 C112 2.67 112 2.34 112 2 C75.04 1.67 38.08 1.34 0 1 C0 0.67 0 0.34 0 0 Z " fill="#E2E2E2" transform="translate(274,140)"/>
<path d="M0 0 C0.33 0 0.66 0 1 0 C1.33 11.22 1.66 22.44 2 34 C1.34 34 0.68 34 0 34 C-1.20735201 26.77377463 -0.91141919 19.79922909 -0.5625 12.5 C-0.51029297 11.29601562 -0.45808594 10.09203125 -0.40429688 8.8515625 C-0.27549039 5.90072306 -0.14056631 2.95029869 0 0 Z " fill="#BBBBBB" transform="translate(24,370)"/>
</svg>
